<?xml version="1.0" encoding="UTF-8"?><svg xmlns="http://www.w3.org/2000/svg" width="527.55" height="527.55" xmlns:xlink="http://www.w3.org/1999/xlink" viewBox="0 0 527.55 527.55"><defs><style>.h{fill:url(#f);}.i{fill:url(#g);}.j{fill:url(#d);}.k{fill:url(#e);}.l{fill:none;}.m{fill:#032a3f;}</style><linearGradient id="d" x1="-4.33" y1="308.65" x2="196.79" y2="417.13" gradientTransform="matrix(1, 0, 0, 1, 0, 0)" gradientUnits="userSpaceOnUse"><stop offset="0" stop-color="#172e79"/><stop offset="1" stop-color="#164888"/></linearGradient><linearGradient id="e" x1="241.92" y1="261.41" x2="482.52" y2="261.41" gradientTransform="matrix(1, 0, 0, 1, 0, 0)" gradientUnits="userSpaceOnUse"><stop offset="0" stop-color="#172a77"/><stop offset="1" stop-color="#164a89"/></linearGradient><linearGradient id="f" x1="196.64" y1="384.71" x2="495.78" y2="384.71" gradientTransform="matrix(1, 0, 0, 1, 0, 0)" gradientUnits="userSpaceOnUse"><stop offset="0" stop-color="#0c5b4e"/><stop offset="1" stop-color="#175066"/></linearGradient><linearGradient id="g" x1="295.31" y1="137.52" x2="185.11" y2="458.52" gradientTransform="matrix(1, 0, 0, 1, 0, 0)" gradientUnits="userSpaceOnUse"><stop offset="0" stop-color="#0f495b"/><stop offset="1" stop-color="#0c5b4e"/></linearGradient></defs><g id="a"/><g id="b"><g id="c"><g><path class="j" d="M138.4,354.14l-35.27-70.95c-10.8-21.72-37.16-30.58-58.88-19.78-21.72,10.8-30.58,37.16-19.78,58.88l57.95,116.58c5.69,11.44,16.08,19.84,28.46,23.01,3.59,.92,7.24,1.37,10.87,1.37,8.91,0,17.7-2.71,25.14-7.91l49.74-34.72c-19.9-20.86-33.47-48.22-39.31-79.69l-18.92,13.21Z"/><path class="k" d="M271.22,368.57l192.51-134.37c19.89-13.88,24.76-41.27,10.88-61.16-13.88-19.89-41.26-24.76-61.16-10.88l-169.1,118.03c-1.69,8.96-2.47,17.5-2.42,25.46,.18,29.33,11.06,52.51,29.29,62.92Z"/><path class="h" d="M485.75,322.21c-15.42-18.72-43.11-21.4-61.83-5.97-46.69,38.46-90.83,59.23-123.92,59.22-9.51,0-18.11-1.71-25.58-5.22-1.09-.51-2.16-1.08-3.21-1.67l-74.58,52.05c11.5,12.05,25.09,21.95,40.54,29.18,14.71,6.89,35.79,13.4,62.9,13.4,44.33,0,104.76-17.43,179.7-79.17,18.72-15.42,21.4-43.11,5.97-61.83Z"/><path class="i" d="M384.14,120.22c21.84-10.55,31-36.81,20.45-58.66-10.55-21.84-36.81-31-58.66-20.45-61.13,29.53-111.23,71.28-144.89,120.74-30.58,44.94-47.26,96.2-46.97,144.33,.07,12.02,1.18,23.64,3.24,34.75l87.03-60.74c9.73-51.51,49.92-116.57,139.79-159.98Z"/><path class="m" d="M241.93,305.65c-.05-7.95,.73-16.5,2.42-25.46l-87.03,60.74c5.84,31.47,19.42,58.83,39.31,79.69l74.58-52.05c-18.23-10.41-29.11-33.59-29.29-62.92Z"/></g><rect class="l" width="527.55" height="527.55"/></g></g></svg>