<?xml version="1.0" encoding="UTF-8"?><svg id="a" xmlns="http://www.w3.org/2000/svg" width="256.5" height="256.5" xmlns:xlink="http://www.w3.org/1999/xlink" viewBox="0 0 256.5 256.5"><defs><style>.h{fill:url(#f);}.i{fill:url(#g);}.j{fill:url(#d);}.k{fill:url(#e);}.l{fill:none;}.m{fill:#86d6f2;}</style><linearGradient id="d" x1="-2.1" y1="405.13" x2="95.67" y2="457.86" gradientTransform="translate(0 -255.1)" gradientUnits="userSpaceOnUse"><stop offset="0" stop-color="#3b8fdb"/><stop offset="1" stop-color="#36c"/></linearGradient><linearGradient id="e" x1="117.6" y1="382.23" x2="234.53" y2="382.23" gradientTransform="translate(0 -255.1)" gradientUnits="userSpaceOnUse"><stop offset="0" stop-color="#36c"/><stop offset="1" stop-color="#3083d6"/></linearGradient><linearGradient id="f" x1="95.5" y1="442.11" x2="240.97" y2="442.11" gradientTransform="translate(0 -255.1)" gradientUnits="userSpaceOnUse"><stop offset="0" stop-color="#58bca9"/><stop offset="1" stop-color="#63a3b7"/></linearGradient><linearGradient id="g" x1="143.51" y1="321.94" x2="89.94" y2="477.98" gradientTransform="translate(0 -255.1)" gradientUnits="userSpaceOnUse"><stop offset="0" stop-color="#5baabc"/><stop offset="1" stop-color="#5bb5a4"/></linearGradient></defs><g id="b"><g id="c"><g><path class="j" d="M67.3,172.2l-17.1-34.5c-5.3-10.6-18.1-14.9-28.6-9.6-10.6,5.3-14.9,18.1-9.6,28.6l28.2,56.7c2.8,5.6,7.8,9.6,13.8,11.2,1.7,.4,3.5,.7,5.3,.7,4.3,0,8.6-1.3,12.2-3.8l24.2-16.9c-9.7-10.1-16.3-23.4-19.1-38.7l-9.3,6.3h0Z"/><path class="k" d="M131.8,179.2l93.6-65.3c9.7-6.7,12-20.1,5.3-29.7-6.7-9.7-20.1-12-29.7-5.3l-82.2,57.4c-.8,4.4-1.2,8.5-1.2,12.4,.1,14.1,5.4,25.4,14.2,30.5h0Z"/><path class="h" d="M236.1,156.6c-7.5-9.1-21-10.4-30.1-2.9-22.7,18.7-44.2,28.8-60.2,28.8-4.6,0-8.8-.8-12.4-2.5-.5-.2-1.1-.5-1.6-.8l-36.3,25.3c5.6,5.9,12.2,10.7,19.7,14.2,7.2,3.3,17.4,6.5,30.6,6.5,21.5,0,50.9-8.5,87.4-38.5,9.1-7.5,10.4-21,2.9-30.1h0Z"/><path class="i" d="M186.7,58.4c10.6-5.1,15.1-17.9,9.9-28.5-5.1-10.6-17.9-15.1-28.5-9.9-29.7,14.4-54.1,34.7-70.4,58.7-14.9,21.8-23,46.8-22.8,70.2,0,5.8,.6,11.5,1.6,16.9l42.3-29.5c4.7-25.1,24.2-56.8,67.9-77.9h0Z"/><path class="m" d="M117.6,148.6c0-3.9,.4-8,1.2-12.4l-42.3,29.5c2.8,15.3,9.4,28.6,19.1,38.7l36.3-25.3c-8.9-5-14.2-16.3-14.3-30.5h0Z"/></g><rect class="l" width="256.5" height="256.5"/></g></g></svg>