<?xml version="1.0" encoding="UTF-8"?><svg id="a" xmlns="http://www.w3.org/2000/svg" width="127.96" height="127.96" xmlns:xlink="http://www.w3.org/1999/xlink" viewBox="0 0 127.96 127.96"><defs><style>.h{fill:url(#f);}.i{fill:url(#g);}.j{fill:url(#d);}.k{fill:url(#e);}.l{fill:none;}.m{fill:#032a3f;}</style><linearGradient id="d" x1="-1.05" y1="329.02" x2="47.73" y2="355.34" gradientTransform="translate(0 -254.16)" gradientUnits="userSpaceOnUse"><stop offset="0" stop-color="#172e79"/><stop offset="1" stop-color="#164888"/></linearGradient><linearGradient id="e" x1="58.68" y1="317.57" x2="117.04" y2="317.57" gradientTransform="translate(0 -254.16)" gradientUnits="userSpaceOnUse"><stop offset="0" stop-color="#172a77"/><stop offset="1" stop-color="#164a89"/></linearGradient><linearGradient id="f" x1="47.69" y1="347.47" x2="120.24" y2="347.47" gradientTransform="translate(0 -254.16)" gradientUnits="userSpaceOnUse"><stop offset="0" stop-color="#0c5b4e"/><stop offset="1" stop-color="#175066"/></linearGradient><linearGradient id="g" x1="71.63" y1="287.52" x2="44.9" y2="365.38" gradientTransform="translate(0 -254.16)" gradientUnits="userSpaceOnUse"><stop offset="0" stop-color="#0f495b"/><stop offset="1" stop-color="#0c5b4e"/></linearGradient></defs><g id="b"><g id="c"><g><path class="j" d="M33.57,85.9l-8.56-17.21c-2.62-5.27-9.01-7.42-14.28-4.8-5.27,2.62-7.42,9.01-4.8,14.28l14.05,28.28c1.38,2.77,3.9,4.81,6.91,5.58,.87,.22,1.75,.33,2.63,.33,2.16,0,4.3-.66,6.1-1.92l12.07-8.42c-4.83-5.06-8.12-11.7-9.54-19.33l-4.59,3.21h0Z"/><path class="k" d="M65.79,89.4l46.69-32.59c4.82-3.37,6.01-10.01,2.64-14.83s-10.01-6.01-14.83-2.64l-41.01,28.63c-.41,2.17-.6,4.25-.59,6.17,.04,7.11,2.68,12.74,7.1,15.26h0Z"/><path class="h" d="M117.82,78.15c-3.74-4.54-10.46-5.19-15-1.45-11.33,9.33-22.03,14.37-30.06,14.36-2.31,0-4.39-.41-6.2-1.27-.26-.12-.52-.26-.78-.4l-18.09,12.62c2.79,2.92,6.09,5.32,9.83,7.08,3.57,1.67,8.68,3.25,15.26,3.25,10.75,0,25.41-4.23,43.59-19.2,4.54-3.74,5.19-10.46,1.45-15h0Z"/><path class="i" d="M93.18,29.16c5.3-2.56,7.52-8.93,4.96-14.23-2.56-5.3-8.93-7.52-14.23-4.96-14.83,7.16-26.98,17.29-35.14,29.29-7.42,10.9-11.46,23.34-11.39,35.01,.01,2.91,.29,5.73,.79,8.43l21.11-14.73c2.36-12.49,12.11-28.27,33.91-38.8h0Z"/><path class="m" d="M58.68,74.14c0-1.93,.18-4,.59-6.17l-21.11,14.73c1.42,7.63,4.71,14.27,9.54,19.33l18.09-12.62c-4.42-2.53-7.06-8.15-7.1-15.26h0Z"/></g><rect class="l" width="127.96" height="127.96"/></g></g></svg>